<svg xmlns="http://www.w3.org/2000/svg" viewBox="0 0 788.47 202.09"><defs><style>.cls-1{fill:#fff;}</style></defs><g id="Capa_2" data-name="Capa 2"><g id="Capa_1-2" data-name="Capa 1"><path class="cls-1" d="M0,70.67C0,21.1,25.92,0,72.15,0c27.77,0,44.6,8.14,55.51,19.42L106.94,40.33c-7-6.65-16.09-12.58-35-12.58-30,0-41.63,14.8-41.63,43.3,0,30,8.13,44.76,41.25,44.76,26.65,0,34.42-8.87,34.42-28.12v-3H67.71V59.58H136V82c0,39-15.55,59.38-65.86,59.38C15.36,141.34,0,116.19,0,70.67Z"/><path class="cls-1" d="M148.27,93.85c0-30.74,12.78-47.24,45.48-47.24s45.44,16.5,45.44,47.24-12.78,47.24-45.44,47.24S148.27,124.58,148.27,93.85Zm72,.5c0-18.77-6.61-29.62-26.5-29.62-20.07,0-26.55,10.85-26.55,29.62s6.48,29.75,26.55,29.75C213.64,124.1,220.25,113.11,220.25,94.35Z"/><path class="cls-1" d="M258.13,114.39V13.78h18.61v98.34c0,7.93,1.28,10.52,9.7,10.52h3.39v16.52c-1.61.16-5.65.31-10,.31C264.46,139.47,258.13,133.16,258.13,114.39Z"/><path class="cls-1" d="M299.71,93.53c0-26.86,8.57-46.75,39.63-46.75,18.11,0,26.71,3.56,30.89,9.87V13.78h18.94V138.5L374.76,140l-2.1-9.7c-5.49,7.1-15.21,10.7-34,10.7C308.12,141,299.71,120.71,299.71,93.53Zm70.52,0c0-21.2-6.62-28.94-27.33-28.94-19.42,0-24.09,11.3-24.09,28.94,0,18,4.67,30.25,24.09,30.25C363,123.78,370.23,115,370.23,93.53Z"/><path class="cls-1" d="M403.58,129.92l9.71-14.55a60.6,60.6,0,0,0,31.86,9.21c14.56,0,20.08-2.09,20.08-11.15,0-7.46-5-8.91-19.91-11.34-21.68-3.39-36.73-6.78-36.73-28.63,0-17.14,9.88-26.85,36.73-26.85,14.08,0,26.69,2.91,35.59,8.09L472,70.23a57.41,57.41,0,0,0-26.21-6.15c-14.87,0-18.6,3.4-18.6,9.38,0,7.29,4.85,9.08,18.6,11.33,22.5,3.73,37.7,6.48,37.7,27.67,0,20.7-11.33,28.49-39.48,28.49C430.3,141,415.88,138.17,403.58,129.92Z"/><path class="cls-1" d="M492.55,48.72h16.17l3.42-24.26,14.72-3.07V48.72H550V65.86H526.86v44.65c0,7.61.95,12.13,12.6,12.13H550v16.68c-2.59.15-11,.15-14.08.15-22.48,0-27.81-8.1-27.81-26.21V65.86H492.55Z"/><path class="cls-1" d="M561.15,93.85c0-25.72,8.09-47.24,45-47.24,38.18,0,39.46,26.54,38.83,55.18H579.44c1.13,14.22,6.78,23.13,27,23.13,14.41,0,21.52-3.73,28.48-8.75l10,13.12c-10.36,7.91-21.21,11.8-38.52,11.8C568.6,141.09,561.15,119.9,561.15,93.85Zm18.29-8.41h47.71c-.8-13-2.08-22.16-21.49-22.16C586.88,63.28,580.91,72,579.44,85.44Z"/><path class="cls-1" d="M664.36,18.14h18.95V38.85H664.36Zm.19,30.58h18.6v90.6h-18.6Z"/><path class="cls-1" d="M706.45,49.86l14.73-1.14,1.62,7.93c4.36-5.34,13.08-10,33.16-10,28.15,0,32.51,15.22,32.51,37.7v55H769.69V88c0-13.26-1.28-22.65-20.06-22.65-20.71,0-24.27,10-24.27,24.25v49.68H706.45Z"/><path class="cls-1" d="M117.65,162.66a18.82,18.82,0,0,1,7.86,1.91l-1.09,3.17a15.86,15.86,0,0,0-6.77-1.39c-6.65,0-9.51,4.56-9.51,11.73s2.86,11.72,9.51,11.72a16,16,0,0,0,6.77-1.39l1.09,3.17a19,19,0,0,1-7.86,1.91c-8.86,0-13.64-6.21-13.64-15.41S108.79,162.66,117.65,162.66Z"/><path class="cls-1" d="M139.13,193.49c-7.34,0-10.25-5-10.25-11.12s2.91-11.12,10.25-11.12,10.43,5,10.43,11.12S146.56,193.49,139.13,193.49Zm0-3.43c4.69,0,6.43-3.34,6.43-7.69s-1.74-7.68-6.43-7.68-6.25,3.34-6.25,7.68S134.49,190.06,139.13,190.06Z"/><path class="cls-1" d="M157.76,171.91l.47,1.91h.09a13.93,13.93,0,0,1,7.38-2.57c4.7,0,7.65,2.74,7.65,8v13.6h-3.91V180c0-3.61-1.52-5.34-4.69-5.34a11.62,11.62,0,0,0-5.86,2v16.12H155V171.91Z"/><path class="cls-1" d="M188.84,171.25a17,17,0,0,1,6.56,1.52l-1,3a15.56,15.56,0,0,0-5.51-1.13c-4.39,0-6.34,3.82-6.34,7.68s1.95,7.69,6.34,7.69a15.79,15.79,0,0,0,5.51-1.13l1,3a17,17,0,0,1-6.56,1.52c-6.56,0-10.29-4.56-10.29-11.12S182.28,171.25,188.84,171.25Z"/><path class="cls-1" d="M202.78,183.63a6.26,6.26,0,0,0,6.64,6.51,10.6,10.6,0,0,0,6.26-1.86l1.51,2.95a14.46,14.46,0,0,1-8.12,2.26c-7.16,0-10.25-5.16-10.25-11.21,0-5.68,3.26-11,9.86-11s9.34,4.35,9.34,9a23.63,23.63,0,0,1-.26,3.34Zm11.42-3.12a7.08,7.08,0,0,0,0-.92c0-2.9-2-5-5.56-5s-5.68,2.43-5.9,5.91Z"/><path class="cls-1" d="M223.27,188.37a11.6,11.6,0,0,0,6.17,1.77c2.9,0,4.3-1,4.3-2.95,0-1.52-.92-2.26-3.13-2.91l-2.52-.69c-3.61-1-5.82-2.61-5.82-6,0-3.82,2.91-6.39,7.77-6.39a17.14,17.14,0,0,1,7.17,1.48L236,175.9a14,14,0,0,0-5.74-1.3c-2.82,0-4.08,1-4.08,2.91,0,1.39.69,2.08,3.08,2.73l2.48.65c3.61.92,5.91,2.79,5.91,6.22,0,3.86-3,6.38-7.87,6.38a14.48,14.48,0,0,1-7.9-2Z"/><path class="cls-1" d="M244.8,162.87a2.46,2.46,0,1,1-2.47,2.44A2.29,2.29,0,0,1,244.8,162.87Zm-2,30V171.91h3.91v20.93Z"/><path class="cls-1" d="M262.43,193.49c-7.34,0-10.24-5-10.24-11.12s2.9-11.12,10.24-11.12,10.42,5,10.42,11.12S269.86,193.49,262.43,193.49Zm0-3.43c4.69,0,6.43-3.34,6.43-7.69s-1.74-7.68-6.43-7.68-6.25,3.34-6.25,7.68S257.78,190.06,262.43,190.06Z"/><path class="cls-1" d="M281.05,171.91l.48,1.91h.09a13.9,13.9,0,0,1,7.38-2.57c4.69,0,7.65,2.74,7.65,8v13.6h-3.91V180c0-3.61-1.53-5.34-4.69-5.34a11.59,11.59,0,0,0-5.86,2v16.12h-3.91V171.91Z"/><path class="cls-1" d="M315.4,191a11,11,0,0,1-7.08,2.52c-3.86,0-6.82-2.3-6.82-6.47,0-5.08,4.17-6.69,9.9-6.69h3.35v-1.09c0-3-1.35-4.55-4.69-4.55a12.31,12.31,0,0,0-6,1.82l-1.47-2.95a13.09,13.09,0,0,1,7.55-2.31c5.43,0,8.51,2.83,8.51,8.08v9.47c0,.74.14,1.13,1.22,1.13H321V193a7.89,7.89,0,0,1-2.12.35,3.2,3.2,0,0,1-3.44-2.39Zm-3.39-7.6c-4.95,0-6.51,1.3-6.51,3.39,0,2.26,1.3,3.3,3.61,3.3a10.27,10.27,0,0,0,5.64-1.78v-4.91Z"/><path class="cls-1" d="M328.38,171.91l.48,2.26h.08a7.37,7.37,0,0,1,5.82-2.92,8.11,8.11,0,0,1,2.26.31l-.57,3.52a11.73,11.73,0,0,0-2.12-.22c-2.74,0-3.82,1.26-4.82,3v14.94H325.6V171.91Z"/><path class="cls-1" d="M343.1,162.87a2.46,2.46,0,1,1-2.48,2.44A2.28,2.28,0,0,1,343.1,162.87Zm-2,30V171.91h3.91v20.93Z"/><path class="cls-1" d="M360.72,193.49c-7.34,0-10.24-5-10.24-11.12s2.9-11.12,10.24-11.12,10.43,5,10.43,11.12S368.15,193.49,360.72,193.49Zm0-3.43c4.69,0,6.43-3.34,6.43-7.69s-1.74-7.68-6.43-7.68-6.25,3.34-6.25,7.68S356.08,190.06,360.72,190.06Z"/><path class="cls-1" d="M404.05,172.34l-8.77,23.28c-1.7,4.47-3.95,6.47-7.25,6.47a17.67,17.67,0,0,1-3.34-.43v-3.31a19.61,19.61,0,0,0,3,.31c1.87,0,2.91-1,3.74-3.26l1-2.78L384,172.34v-.43h3.91l6.21,16.28h.13l5.95-16.28h3.86Z"/><path class="cls-1" d="M418.77,187.11a12.36,12.36,0,0,0,7.73,2.69c3.3,0,5.51-1.43,5.51-4.73,0-2.65-1.3-3.65-4.82-5l-2.69-1c-4.34-1.52-6.86-4.12-6.86-8,0-4.91,3.56-8.51,9.64-8.51a17.3,17.3,0,0,1,8.21,2.43l-1.61,3.21a13.67,13.67,0,0,0-6.6-2c-3.69,0-5.52,1.91-5.52,4.52,0,2.08.83,3.38,3.91,4.47l2.87,1c4.86,1.74,7.6,4.17,7.6,8.47,0,5-3.86,8.68-9.64,8.68a15.69,15.69,0,0,1-9.51-3.21Z"/><path class="cls-1" d="M444.34,183.63a6.26,6.26,0,0,0,6.65,6.51,10.59,10.59,0,0,0,6.25-1.86l1.52,2.95a14.54,14.54,0,0,1-8.12,2.26c-7.17,0-10.25-5.16-10.25-11.21,0-5.68,3.26-11,9.86-11s9.34,4.35,9.34,9a23.49,23.49,0,0,1-.27,3.34Zm11.42-3.12a7.08,7.08,0,0,0,0-.92c0-2.9-1.95-5-5.55-5s-5.69,2.43-5.91,5.91Z"/><path class="cls-1" d="M467.65,171.91l.48,2.26h.09a7.37,7.37,0,0,1,5.82-2.92,8,8,0,0,1,2.25.31l-.56,3.52a11.75,11.75,0,0,0-2.13-.22c-2.73,0-3.82,1.26-4.82,3v14.94h-3.9V171.91Z"/><path class="cls-1" d="M498.09,172.34l-8.16,20.5H486.2L478,172.34v-.43h3.91L488,188.19h.09l6.12-16.28h3.87Z"/><path class="cls-1" d="M504.25,162.87a2.46,2.46,0,1,1-2.47,2.44A2.29,2.29,0,0,1,504.25,162.87Zm-1.95,30V171.91h3.91v20.93Z"/><path class="cls-1" d="M521.92,171.25a17,17,0,0,1,6.56,1.52l-1,3a15.61,15.61,0,0,0-5.51-1.13c-4.39,0-6.34,3.82-6.34,7.68s2,7.69,6.34,7.69a15.84,15.84,0,0,0,5.51-1.13l1,3a17,17,0,0,1-6.56,1.52c-6.55,0-10.28-4.56-10.28-11.12S515.37,171.25,521.92,171.25Z"/><path class="cls-1" d="M535.86,183.63a6.26,6.26,0,0,0,6.64,6.51,10.6,10.6,0,0,0,6.26-1.86l1.51,2.95a14.45,14.45,0,0,1-8.11,2.26c-7.17,0-10.25-5.16-10.25-11.21,0-5.68,3.25-11,9.85-11s9.34,4.35,9.34,9a23.63,23.63,0,0,1-.26,3.34Zm11.42-3.12a7.08,7.08,0,0,0,0-.92c0-2.9-2-5-5.56-5s-5.69,2.43-5.9,5.91Z"/><path class="cls-1" d="M579.62,193.49c-9.33,0-13.11-6.69-13.11-15.41s3.78-15.42,13.11-15.42,13.07,6.68,13.07,15.42S589,193.49,579.62,193.49Zm0-3.69c6.91,0,9-5.13,9-11.72s-2-11.73-9-11.73-9,5.12-9,11.73S572.76,189.8,579.62,189.8Z"/><path class="cls-1" d="M600.16,192.84V175.12h-3.74v-2.35l3.74-.86V169c0-4.82,2.34-6.82,6.68-6.82a22,22,0,0,1,3,.27V166a14.37,14.37,0,0,0-2.61-.31c-2.08,0-3.13.7-3.13,3.09v3.17h5.74v3.21h-5.74v17.72Z"/><path class="cls-1" d="M616.22,162.87a2.46,2.46,0,1,1-2.48,2.44A2.29,2.29,0,0,1,616.22,162.87Zm-2,30V171.91h3.9v20.93Z"/><path class="cls-1" d="M633.89,171.25a17,17,0,0,1,6.56,1.52l-1,3a15.61,15.61,0,0,0-5.51-1.13c-4.39,0-6.34,3.82-6.34,7.68s1.95,7.69,6.34,7.69a15.84,15.84,0,0,0,5.51-1.13l1,3a17,17,0,0,1-6.56,1.52c-6.56,0-10.29-4.56-10.29-11.12S627.33,171.25,633.89,171.25Z"/><path class="cls-1" d="M647.61,162.87a2.46,2.46,0,1,1-2.48,2.44A2.29,2.29,0,0,1,647.61,162.87Zm-2,30V171.91h3.92v20.93Z"/><path class="cls-1" d="M668.54,191a11,11,0,0,1-7.08,2.52c-3.86,0-6.82-2.3-6.82-6.47,0-5.08,4.17-6.69,9.9-6.69h3.35v-1.09c0-3-1.35-4.55-4.69-4.55a12.31,12.31,0,0,0-6,1.82l-1.48-2.95a13.15,13.15,0,0,1,7.56-2.31c5.43,0,8.51,2.83,8.51,8.08v9.47c0,.74.14,1.13,1.22,1.13h1.17V193a7.9,7.9,0,0,1-2.13.35,3.18,3.18,0,0,1-3.43-2.39Zm-3.39-7.6c-4.95,0-6.51,1.3-6.51,3.39,0,2.26,1.3,3.3,3.6,3.3a10.28,10.28,0,0,0,5.65-1.78v-4.91Z"/><path class="cls-1" d="M685.77,193a10.26,10.26,0,0,1-2.56.35c-3.13,0-4.43-1.82-4.43-4.82v-26.1h3.91V188.8c0,.74.13,1.13,1.21,1.13h1.87Z"/></g></g></svg>